<svg xmlns="http://www.w3.org/2000/svg" width="860" height="440" viewBox="0 0 860 440">
  <defs>
    <marker id="a4" markerWidth="10" markerHeight="10" refX="9" refY="3" orient="auto" markerUnits="strokeWidth"><path d="M0,0 L0,6 L9,3 z" fill="#4a6fa5"/></marker>
  </defs>
  <rect width="860" height="440" fill="#ffffff"/>
  <text x="430" y="32" text-anchor="middle" font-size="20" font-family="sans-serif" font-weight="bold" fill="#333">打包与 Catalog</text>

  <rect x="40" y="55" width="240" height="80" rx="10" fill="#eaf1fa" stroke="#4a6fa5" stroke-width="2"/>
  <text x="160" y="88" text-anchor="middle" font-size="14" font-family="sans-serif" font-weight="bold" fill="#2b4a7a">Addressables Build</text>
  <text x="160" y="112" text-anchor="middle" font-size="12" font-family="sans-serif" fill="#4a6fa5">产出 Bundle 与 Catalog</text>
  <line x1="280" y1="95" x2="318" y2="95" stroke="#4a6fa5" stroke-width="2.5" marker-end="url(#a4)"/>

  <rect x="320" y="55" width="220" height="80" rx="10" fill="#eef7ea" stroke="#5a9e4f" stroke-width="2"/>
  <text x="430" y="88" text-anchor="middle" font-size="14" font-family="sans-serif" font-weight="bold" fill="#3a6e31">上传 CDN</text>
  <text x="430" y="112" text-anchor="middle" font-size="12" font-family="sans-serif" fill="#5a9e4f">hash + json + bundle</text>
  <line x1="540" y1="95" x2="578" y2="95" stroke="#4a6fa5" stroke-width="2.5" marker-end="url(#a4)"/>

  <rect x="580" y="55" width="240" height="80" rx="10" fill="#fdf0e7" stroke="#d9833a" stroke-width="2"/>
  <text x="700" y="88" text-anchor="middle" font-size="14" font-family="sans-serif" font-weight="bold" fill="#a05a20">Player Build</text>
  <text x="700" y="112" text-anchor="middle" font-size="12" font-family="sans-serif" fill="#d9833a">安装包内含本地 Catalog</text>

  <rect x="40" y="180" width="780" height="110" rx="10" fill="#f4f8fd" stroke="#9db8dd" stroke-width="2"/>
  <text x="430" y="215" text-anchor="middle" font-size="15" font-family="sans-serif" font-weight="bold" fill="#2b4a7a">Catalog 才是资源地图</text>
  <text x="430" y="248" text-anchor="middle" font-size="13" font-family="sans-serif" fill="#333">hash 变化则下载新 json，再只下载哈希变化的 Bundle</text>
  <text x="430" y="274" text-anchor="middle" font-size="13" font-family="sans-serif" fill="#666">没有 Catalog，运行时无法解析任何地址</text>

  <rect x="40" y="320" width="370" height="90" rx="10" fill="#eef7ea" stroke="#bfe0b6" stroke-width="1.5"/>
  <text x="225" y="355" text-anchor="middle" font-size="14" font-family="sans-serif" font-weight="bold" fill="#3a6e31">New Build</text>
  <text x="225" y="382" text-anchor="middle" font-size="12" font-family="sans-serif" fill="#5a9e4f">全量重打，发版时使用</text>

  <rect x="450" y="320" width="370" height="90" rx="10" fill="#fffbe6" stroke="#e0c060" stroke-width="1.5"/>
  <text x="635" y="355" text-anchor="middle" font-size="14" font-family="sans-serif" font-weight="bold" fill="#8a6d1a">Content Update</text>
  <text x="635" y="382" text-anchor="middle" font-size="12" font-family="sans-serif" fill="#8a6d1a">依赖上一版 content_state.bin</text>
</svg>
